<svg width="56" height="47" viewBox="0 0 56 47" fill="none" xmlns="http://www.w3.org/2000/svg">
<g id="Isolation_Mode" clip-path="url(#clip0_127_699)">
<path id="Vector" d="M55.8371 24.3871C55.8514 24.5154 55.8013 24.6243 55.7422 24.7332C55.5935 24.9898 55.6365 25.2534 55.7117 25.5187C55.5846 25.7682 55.7278 26.0634 55.5667 26.3076C55.4771 26.1759 55.5452 26.0283 55.5201 25.8894C55.5416 26.03 55.4807 26.1776 55.5631 26.3112C55.5667 26.385 55.5452 26.4465 55.4771 26.4869C55.3142 26.7434 55.4252 27.0755 55.2318 27.325C55.119 28.0296 54.9166 28.7132 54.6802 29.3862C54.6659 29.474 54.6749 29.5654 54.6426 29.6515C54.374 30.2981 54.1913 30.9781 53.8959 31.6142C53.5681 32.3206 53.2852 33.0463 52.9038 33.7263C51.6233 36.0984 50.0761 38.2808 48.117 40.1662C46.8419 41.3699 45.4254 42.3925 43.9086 43.2834C41.9781 44.3728 39.9259 45.1741 37.7715 45.7082C36.2637 46.0825 34.7397 46.3847 33.1907 46.5499C32.9937 46.5481 32.7985 46.5517 32.6105 46.6219C31.921 46.6659 31.2369 46.7783 30.5457 46.817C30.3469 46.817 30.1445 46.8029 29.9547 46.8802C29.6574 46.9207 29.3584 46.8908 29.0611 46.9066C27.1718 47.0103 25.2825 47.0138 23.3914 46.9857C22.068 46.9663 20.7428 46.9523 19.4212 46.8855C17.6591 46.7959 15.897 46.6712 14.1366 46.5446C12.9386 46.4585 11.7405 46.3777 10.5425 46.2793C9.40352 46.1862 8.26099 46.151 7.12563 46.0228C6.9949 46.0087 6.82299 46.0228 6.79254 45.8664C6.75673 45.6836 6.93043 45.6221 7.06833 45.5782C7.95835 45.29 8.85196 45.0194 9.73124 44.6996C12.8204 43.5751 15.7018 42.071 18.3862 40.1943C20.0641 39.0223 21.6382 37.7343 23.0619 36.2724C24.756 34.6874 26.1672 32.8758 27.4727 30.9781C27.7019 30.6249 28.0242 30.6197 28.3734 30.7585C28.694 30.885 28.9662 31.0941 29.2456 31.2874C30.2538 31.9885 31.2871 32.6562 32.3221 33.3169C32.4439 33.3942 32.5746 33.5312 32.7215 33.4645C32.9041 33.3801 32.82 33.1798 32.8271 33.027C32.8397 32.7792 32.8271 32.5297 32.8325 32.2819C32.863 32.1343 32.8952 31.9867 32.9256 31.8391C33.0331 31.3647 33.0044 30.8832 33.0098 30.4035C33.2748 29.3159 33.2193 28.2036 33.2766 27.1001C33.282 26.7241 33.2659 26.3481 33.2874 25.972C33.4271 25.422 33.513 24.865 33.5059 24.2957C33.4987 23.7879 33.4987 23.2783 33.547 22.7723C33.513 22.2522 33.6169 21.725 33.4897 21.2067C33.5381 20.9747 33.5864 20.7445 33.6348 20.5126C33.7011 19.989 33.7888 19.4636 33.6509 18.9382C33.7763 18.4743 33.7333 18.0016 33.7208 17.5307C33.6975 17.4886 33.7028 17.4517 33.7422 17.4218C33.993 17.594 33.7834 17.8505 33.8425 17.9806C33.8622 18.0702 33.8604 18.0579 33.8604 18.0122C33.8586 17.116 33.8551 17.1108 33.0295 17.5237C29.7416 19.1701 26.4627 20.8324 23.1855 22.4999C22.0752 23.064 20.9685 23.6333 19.8439 24.1727C19.3048 24.431 19.2941 24.5786 19.7866 24.916C20.7733 25.596 21.7672 26.2655 22.77 26.9226C23.0798 27.1265 23.3807 27.3391 23.6636 27.5798C23.8964 27.8873 23.7997 28.186 23.6296 28.4777C23.4308 28.8204 23.1497 29.1085 22.9616 29.4564C22.0842 30.5406 21.1923 31.6125 20.2307 32.6246C19.1938 33.7158 18.0119 34.6488 16.8532 35.6082C15.2272 36.8153 13.5134 37.8837 11.6725 38.7535C11.5113 38.829 11.3591 38.9204 11.1836 38.9661C10.9257 38.9731 10.7323 39.119 10.5371 39.2595C9.05611 39.9571 7.50707 40.4649 5.93117 40.913C4.20663 41.405 2.43195 41.5948 0.660855 41.8109C0.601758 41.8109 0.542662 41.8074 0.483566 41.8021C-0.0465099 41.7617 -0.116351 41.6246 0.161223 41.1801C1.84636 38.4811 3.41152 35.7171 4.82088 32.8706C5.90073 30.7304 6.91969 28.5621 7.88493 26.3709C8.26816 25.5011 8.66034 24.6348 9.02746 23.758C9.28175 23.2028 9.52172 22.6405 9.74736 22.0712C10.5801 20.1278 11.3895 18.1756 12.1703 16.2111C12.5535 15.3976 12.8239 14.5383 13.2179 13.73C13.4847 13.0483 13.8375 12.4034 14.1187 11.7269C15.4528 9.0701 17.0359 6.58198 19.2099 4.4945C19.3156 4.39259 19.3944 4.26432 19.5144 4.1747C20.4599 3.449 21.375 2.68289 22.4316 2.11006C22.8058 1.90623 23.1712 1.67781 23.5956 1.57765C24.8044 1.08213 26.0257 0.625279 27.3222 0.403879C28.3322 0.231679 29.3458 0.0946221 30.372 0.0946221C30.9074 0.0946221 31.4321 -0.0406777 31.9711 0.00325078C33.6993 0.138551 35.4345 0.189508 37.1358 0.579593C37.639 0.695564 38.144 0.82735 38.6598 0.881821C39.6966 1.08389 40.6816 1.44235 41.6576 1.83068C43.1027 2.40526 44.4906 3.09406 45.8247 3.88477C46.8688 4.60169 47.9647 5.24832 48.9103 6.09877C49.7645 6.86488 50.5936 7.65208 51.344 8.5166C52.4793 9.8204 53.3318 11.3034 54.1251 12.8198C54.383 13.5244 54.6802 14.2132 54.9256 14.9231C55.1691 15.7086 55.3643 16.5046 55.5452 17.3058C55.5541 17.3497 55.5595 17.3954 55.5613 17.4394C55.6974 17.7451 55.5685 18.1 55.7458 18.3988C55.8102 18.4427 55.8299 18.5042 55.8246 18.578C55.8639 18.889 55.7655 19.1965 55.7887 19.5075C55.7995 19.5655 55.8693 19.4794 55.8174 19.5075C55.7995 19.5181 55.7816 19.504 55.7905 19.4759C55.8299 19.3582 55.6849 19.1877 55.8926 19.1174C55.9284 19.4653 55.9642 19.8133 56 20.1629C55.8765 21.0081 55.8801 21.8533 55.9965 22.6985C55.889 23.0991 55.9177 23.5085 55.9123 23.9144C55.9105 24.0708 55.9589 24.2377 55.8371 24.3765C55.7368 24.069 55.8049 23.758 55.7852 23.4488C55.8174 23.758 55.7314 24.0708 55.8335 24.3801L55.8371 24.3871Z" fill="#A84754"/>
</g>
<defs>
<clipPath id="clip0_127_699">
<rect width="56" height="47" fill="white"/>
</clipPath>
</defs>
</svg>
