<svg width="56" height="47" viewBox="0 0 56 47" fill="none" xmlns="http://www.w3.org/2000/svg">
<g clip-path="url(#clip0_127_699)">
<path d="M55.8376 24.387C55.8519 24.5153 55.8018 24.6242 55.7427 24.7332C55.594 24.9897 55.637 25.2533 55.7122 25.5186C55.5851 25.7681 55.7283 26.0633 55.5672 26.3076C55.4776 26.1758 55.5457 26.0282 55.5206 25.8894C55.5421 26.0299 55.4812 26.1775 55.5636 26.3111C55.5672 26.3849 55.5457 26.4464 55.4776 26.4868C55.3147 26.7433 55.4257 27.0754 55.2323 27.3249C55.1195 28.0296 54.9171 28.7131 54.6807 29.3861C54.6664 29.4739 54.6753 29.5653 54.6431 29.6514C54.3745 30.298 54.1918 30.978 53.8963 31.6141C53.5686 32.3205 53.2857 33.0462 52.9043 33.7262C51.6238 36.0983 50.0766 38.2807 48.1175 40.1661C46.8424 41.3698 45.4259 42.3924 43.9091 43.2833C41.9786 44.3727 39.9263 45.174 37.772 45.7081C36.2642 46.0824 34.7402 46.3846 33.1912 46.5498C32.9942 46.5481 32.799 46.5516 32.6109 46.6219C31.9215 46.6658 31.2374 46.7782 30.5462 46.8169C30.3474 46.8169 30.145 46.8028 29.9552 46.8802C29.6579 46.9206 29.3589 46.8907 29.0616 46.9065C27.1723 47.0102 25.283 47.0137 23.3919 46.9856C22.0685 46.9663 20.7433 46.9522 19.4217 46.8854C17.6596 46.7958 15.8974 46.6711 14.1371 46.5445C12.939 46.4584 11.741 46.3776 10.543 46.2792C9.40401 46.1861 8.26148 46.1509 7.12612 46.0227C6.99539 46.0086 6.82347 46.0227 6.79303 45.8663C6.75721 45.6835 6.93092 45.622 7.06881 45.5781C7.95884 45.2899 8.85245 45.0193 9.73173 44.6995C12.8209 43.575 15.7022 42.0709 18.3866 40.1942C20.0646 39.0222 21.6387 37.7342 23.0624 36.2723C24.7565 34.6874 26.1677 32.8757 27.4732 30.978C27.7024 30.6248 28.0247 30.6196 28.3739 30.7584C28.6945 30.8849 28.9667 31.094 29.246 31.2873C30.2543 31.9884 31.2875 32.6561 32.3226 33.3168C32.4444 33.3941 32.5751 33.5312 32.722 33.4644C32.9046 33.38 32.8205 33.1797 32.8276 33.0269C32.8402 32.7791 32.8276 32.5296 32.833 32.2818C32.8634 32.1342 32.8957 31.9866 32.9261 31.839C33.0336 31.3646 33.0049 30.8831 33.0103 30.4034C33.2753 29.3158 33.2198 28.2035 33.2771 27.1C33.2825 26.724 33.2664 26.348 33.2879 25.9719C33.4275 25.422 33.5135 24.8649 33.5063 24.2956C33.4992 23.7878 33.4992 23.2782 33.5475 22.7722C33.5135 22.2521 33.6174 21.7249 33.4902 21.2066C33.5386 20.9746 33.5869 20.7444 33.6353 20.5125C33.7015 19.9889 33.7893 19.4635 33.6514 18.9381C33.7768 18.4742 33.7338 18.0016 33.7212 17.5306C33.698 17.4885 33.7033 17.4516 33.7427 17.4217C33.9934 17.5939 33.7839 17.8504 33.843 17.9805C33.8627 18.0701 33.8609 18.0578 33.8609 18.0121C33.8591 17.116 33.8555 17.1107 33.03 17.5236C29.7421 19.17 26.4631 20.8323 23.186 22.4998C22.0757 23.0639 20.969 23.6332 19.8444 24.1726C19.3053 24.4309 19.2946 24.5785 19.7871 24.9159C20.7738 25.5959 21.7677 26.2654 22.7705 26.9226C23.0803 27.1264 23.3812 27.339 23.6641 27.5797C23.8969 27.8872 23.8002 28.1859 23.6301 28.4776C23.4313 28.8203 23.1502 29.1084 22.9621 29.4564C22.0846 30.5405 21.1928 31.6124 20.2312 32.6245C19.1943 33.7157 18.0124 34.6487 16.8537 35.6081C15.2277 36.8153 13.5139 37.8836 11.673 38.7534C11.5118 38.8289 11.3596 38.9203 11.1841 38.966C10.9262 38.973 10.7328 39.1189 10.5376 39.2594C9.0566 39.957 7.50756 40.4648 5.93166 40.9129C4.20712 41.4049 2.43244 41.5947 0.661343 41.8108C0.602247 41.8108 0.54315 41.8073 0.484054 41.802C-0.0460216 41.7616 -0.115863 41.6245 0.161711 41.18C1.84685 38.481 3.41201 35.717 4.82136 32.8705C5.90121 30.7303 6.92018 28.562 7.88542 26.3708C8.26865 25.501 8.66083 24.6348 9.02794 23.7579C9.28224 23.2027 9.5222 22.6404 9.74784 22.0711C10.5806 20.1277 11.39 18.1755 12.1708 16.211C12.554 15.3975 12.8244 14.5382 13.2184 13.7299C13.4852 13.0482 13.838 12.4033 14.1192 11.7268C15.4533 9.07 17.0364 6.58189 19.2104 4.49441C19.3161 4.3925 19.3949 4.26423 19.5148 4.17461C20.4604 3.44891 21.3755 2.6828 22.4321 2.10997C22.8063 1.90614 23.1717 1.67771 23.5961 1.57756C24.8049 1.08204 26.0262 0.625187 27.3227 0.403787C28.3327 0.231587 29.3463 0.0945305 30.3724 0.0945305C30.9079 0.0945305 31.4326 -0.0407693 31.9716 0.00315923C33.6997 0.138459 35.435 0.189416 37.1363 0.579501C37.6395 0.695473 38.1445 0.827258 38.6603 0.881729C39.6971 1.0838 40.6821 1.44226 41.658 1.83059C43.1032 2.40517 44.4911 3.09397 45.8252 3.88468C46.8693 4.6016 47.9652 5.24822 48.9108 6.09868C49.765 6.86479 50.5941 7.65199 51.3445 8.51651C52.4798 9.8203 53.3322 11.3033 54.1256 12.8197C54.3834 13.5244 54.6807 14.2132 54.9261 14.923C55.1696 15.7085 55.3648 16.5045 55.5457 17.3057C55.5546 17.3497 55.56 17.3953 55.5618 17.4393C55.6979 17.745 55.569 18.1 55.7462 18.3987C55.8107 18.4426 55.8304 18.5041 55.825 18.5779C55.8644 18.8889 55.7659 19.1964 55.7892 19.5074C55.8 19.5654 55.8698 19.4793 55.8179 19.5074C55.8 19.518 55.7821 19.5039 55.791 19.4758C55.8304 19.3581 55.6854 19.1876 55.8931 19.1173C55.9289 19.4653 55.9647 19.8132 56.0005 20.1628C55.877 21.008 55.8806 21.8532 55.997 22.6984C55.8895 23.099 55.9182 23.5084 55.9128 23.9143C55.911 24.0707 55.9593 24.2376 55.8376 24.3765C55.7373 24.069 55.8053 23.7579 55.7856 23.4487C55.8179 23.7579 55.7319 24.0707 55.834 24.38L55.8376 24.387Z" fill="#A84754"/>
</g>
<defs>
<clipPath id="clip0_127_699">
<rect width="56" height="47" fill="white"/>
</clipPath>
</defs>
</svg>
