<svg width="92" height="92" viewBox="0 0 92 92" fill="none" xmlns="http://www.w3.org/2000/svg">
<path d="M46 0L47.5256 38.3303L63.6034 3.50154L50.3446 39.4979L78.5269 13.4731L52.5021 41.6554L88.4985 28.3966L53.6697 44.4744L92 46L53.6697 47.5256L88.4985 63.6034L52.5021 50.3446L78.5269 78.5269L50.3446 52.5021L63.6034 88.4985L47.5256 53.6697L46 92L44.4744 53.6697L28.3966 88.4985L41.6554 52.5021L13.4731 78.5269L39.4979 50.3446L3.50154 63.6034L38.3303 47.5256L0 46L38.3303 44.4744L3.50154 28.3966L39.4979 41.6554L13.4731 13.4731L41.6554 39.4979L28.3966 3.50154L44.4744 38.3303L46 0Z" fill="#404040"/>
</svg>
