<svg width="50" height="50" viewBox="0 0 50 50" fill="none" xmlns="http://www.w3.org/2000/svg">
<path d="M25 0L26.1025 19.1022L34.031 1.68819L28.1586 19.8987L41.8424 6.52478L29.7881 21.3842L47.3791 13.8565L30.771 23.358L49.8934 22.6933L30.9744 25.5536L49.0456 31.8416L30.371 27.6744L44.9504 40.0659L29.0422 29.4341L38.1608 46.2554L27.1674 30.5948L29.5937 49.5743L25 31L20.4063 49.5743L22.8326 30.5948L11.8392 46.2554L20.9578 29.4341L5.04957 40.0659L19.629 27.6744L0.954359 31.8416L19.0256 25.5536L0.106646 22.6933L19.229 23.358L2.62092 13.8565L20.2119 21.3842L8.15761 6.52478L21.8414 19.8987L15.969 1.68819L23.8975 19.1022L25 0Z" fill="#D9D9D9"/>
</svg>
